<svg width="155" height="155" viewBox="0 0 155 155" fill="none" xmlns="http://www.w3.org/2000/svg">
<path d="M122.959 139.034C121.941 114.551 101.988 95 77.5 95C53.0125 95 33.0592 114.551 32.0408 139.034C13.2093 125.099 1 102.725 1 77.5C1 35.2502 35.2502 1 77.5 1C119.75 1 154 35.2502 154 77.5C154 102.725 141.791 125.099 122.959 139.034ZM34.0035 140.439C34.3003 116.387 53.671 97 77.5 97C101.329 97 120.7 116.387 120.997 140.439C108.647 148.99 93.6584 154 77.5 154C61.3416 154 46.3533 148.99 34.0035 140.439ZM99 58.5C99 70.3741 89.3741 80 77.5 80C65.6259 80 56 70.3741 56 58.5C56 46.6259 65.6259 37 77.5 37C89.3741 37 99 46.6259 99 58.5ZM77.5 82C90.4787 82 101 71.4787 101 58.5C101 45.5213 90.4787 35 77.5 35C64.5213 35 54 45.5213 54 58.5C54 71.4787 64.5213 82 77.5 82Z" stroke="white" stroke-width="2"/>
</svg>
